<?xml version="1.0" encoding="UTF-8" standalone="no" ?>
<!DOCTYPE svg PUBLIC "-//W3C//DTD SVG 1.1//EN" "http://www.w3.org/Graphics/SVG/1.1/DTD/svg11.dtd">
<svg xmlns="http://www.w3.org/2000/svg" xmlns:xlink="http://www.w3.org/1999/xlink" version="1.1" width="1080" height="1080" viewBox="0 0 1080 1080" xml:space="preserve">
<desc>Created with Fabric.js 4.2.0</desc>
<defs>
</defs>
<rect x="0" y="0" width="100%" height="100%" fill="transparent"></rect>
<g transform="matrix(1 0 0 1 540 540)" id="f648eab0-b70c-468a-ba18-2106619c877c"  >
<rect style="stroke: none; stroke-width: 1; stroke-dasharray: none; stroke-linecap: butt; stroke-dashoffset: 0; stroke-linejoin: miter; stroke-miterlimit: 4; fill: rgb(255,255,255); fill-rule: nonzero; opacity: 1;" vector-effect="non-scaling-stroke"  x="-540" y="-540" rx="0" ry="0" width="1080" height="1080" />
</g>
<g transform="matrix(1 0 0 1 540 540)" id="95bf47f5-1b37-4bad-b0b7-0a77da2c3e11"  >
</g>
<g transform="matrix(16.06 0 0 16.06 540 506.11)" id="Icon_ionic-ios-search"  >
<path style="stroke: rgb(0,0,0); stroke-width: 0; stroke-dasharray: none; stroke-linecap: butt; stroke-dashoffset: 0; stroke-linejoin: miter; stroke-miterlimit: 4; fill: rgb(40,216,196); fill-rule: nonzero; opacity: 1;" vector-effect="non-scaling-stroke"  transform=" translate(-18.05, -18.06)" d="M 31.184 29.545 L 23.675 21.965000000000003 C 27.208358441381566 17.511943208583812 26.642915291355997 11.07330547489375 22.387489480966586 7.304262116807795 C 18.132063670577175 3.5352187587218395 11.672267290721217 3.7515808450684354 7.678573492679529 7.796917235326184 C 3.684879694637843 11.842253625583933 3.551527282721601 18.304296565385904 7.3749308840939065 22.510948626571082 C 11.198334485466212 26.71760068775626 17.643705321831064 27.20027718743886 22.05100000000001 23.61 L 29.511000000000003 31.140000000000004 C 29.9503526663033 31.600719756458776 30.67951730061645 31.61949652815783 31.142000000000003 31.182000000000006 C 31.602885839430456 30.740330669330422 31.621630831357376 30.009722293512034 31.184 29.545 Z M 15.265 23.7 C 11.23390743942693 23.699095897053738 7.764756796866486 20.850904393229193 6.97898600345982 16.897137542548855 C 6.193215210053154 12.94337069186851 8.30965116079416 8.985100881756162 12.034061356912204 7.4428697900057585 C 15.75847155303025 5.9006386982553565 20.05365643742965 7.203937525103104 22.293045683863692 10.555779384777463 C 24.532434930297732 13.907621244451823 24.09238790514685 18.37456199164018 21.242000000000004 21.224999999999998 C 19.659986351723564 22.81486858466379 17.507858187049315 23.706037600485903 15.265 23.7 Z" stroke-linecap="round" />
</g>
</svg>